<?xml version="1.0" encoding="utf-8"?>
<!-- Generator: Adobe Illustrator 25.2.1, SVG Export Plug-In . SVG Version: 6.00 Build 0)  -->
<svg version="1.1" id="Layer_1" xmlns="http://www.w3.org/2000/svg" xmlns:xlink="http://www.w3.org/1999/xlink" x="0px" y="0px"
	 viewBox="0 0 395.81 135.8" style="enable-background:new 0 0 395.81 135.8;" xml:space="preserve">
<style type="text/css">
	.st0{fill:#FFFFFF;}
</style>
<g>
	<path id="XMLID_108_" class="st0" d="M297.37,129.81c0-2.1,0-4.14,0-6.35c0.84,0,1.55,0,2.27,0c17.14,0,34.28,0.04,51.41-0.01
		c15.69-0.05,28.53-10.46,31.93-25.77c3.63-16.33-7.23-34.35-23.13-38.28c-7.03-1.74-13.84-0.68-20.15,2.61
		c-4.01,2.09-7.64,4.9-11.43,7.4c-0.5,0.33-0.93,0.75-1.51,1.23c-6.96-10.39-16.57-11.33-27.53-7.72c3.9-6.73,20.29-7.46,27.15,0.86
		c5.71-6.19,12.85-9.76,21.31-11.23c-2.89-6.69-6.45-12.5-13.14-15.68c-6.67-3.17-13.47-2.25-20.31-0.28
		c-0.38-0.74-0.7-1.38-1.02-2.02c-8.42-16.74-30.05-25.15-46.72-18.09c-9.25,3.92-15.05,11.21-19.06,20.14
		c-0.51,1.15-0.95,2.33-1.49,3.66c10.62,4.25,16.04,11.89,15.69,23.84c-0.62-1.17-1.02-1.95-1.44-2.73
		c-3.67-6.73-8.44-12.33-15.83-15.17c-12.46-4.8-26.8,2.05-30.89,14.7c-0.15,0.45-0.7,1.08-1.09,1.1c-1.87,0.12-3.74,0.05-5.83,0.05
		c1.82-7.55,5.73-13.41,11.94-17.68c6.14-4.23,13.04-5.71,20.54-5.21c0.35-1.44,0.62-2.79,1.01-4.11
		c4.77-15.97,15.78-25.15,31.78-28.34c18.66-3.72,36.5,4.73,44.97,20.86c0.45,0.86,0.95,1,1.89,0.79c6.1-1.35,12.2-1.52,18.13,0.69
		c9.98,3.72,15.17,11.46,17.43,21.48c0.32,1.4,0.78,1.97,2.29,2.13c15.65,1.63,29.78,14.93,32.76,30.71
		c4.14,21.96-10.02,42.28-32.08,46c-1.79,0.3-3.63,0.45-5.44,0.45c-17.62,0.03-35.25,0.02-52.87,0.02
		C298.42,129.89,297.94,129.84,297.37,129.81z"/>
	<g>
		<path class="st0" d="M5.81,109.46V70.85h41.26v7.02H14.45v10.69h28.4v7.02h-28.4v13.88C14.45,109.46,5.81,109.46,5.81,109.46z"/>
		<path class="st0" d="M52.14,77.06v-6.1h7.94v6.1H52.14z M52.2,109.46v-27.8h7.83v27.81H52.2V109.46z"/>
		<path class="st0" d="M65.97,109.46v-27.8h24.25c3.17,0,5.48,0.78,6.94,2.35s2.19,3.63,2.19,6.18v19.28h-7.83V91.1
			c0-2.16-1.08-3.24-3.24-3.24H73.8v21.6H65.97z"/>
		<path class="st0" d="M119.26,109.73c-4.82,0-8.59-1.2-11.29-3.59s-4.05-5.91-4.05-10.56c0-4.68,1.35-8.22,4.05-10.61
			c2.7-2.39,6.46-3.59,11.29-3.59h13.5c3.17,0,5.59,0.75,7.26,2.24s2.51,3.63,2.51,6.4c0,5.65-3.26,8.48-9.77,8.48h-20.41
			c0.76,3.35,3.06,5.02,6.91,5.02h21.87v6.21C141.13,109.73,119.26,109.73,119.26,109.73z M119.26,87.59c-3.71,0-5.99,1.57-6.86,4.7
			h19.98c0.72,0,1.29-0.22,1.7-0.65s0.62-1.03,0.62-1.78c0-1.51-0.77-2.27-2.32-2.27H119.26z"/>
		<path class="st0" d="M144.97,109.46l14.47-19.28l-14.47-19.33h10.53l11.61,15.82h4.97l11.61-15.82h10.53l-14.47,19.33l14.47,19.28
			h-10.58L172.08,93.7h-4.97l-11.56,15.77h-10.58V109.46z"/>
		<path class="st0" d="M209.82,109.73c-4.82,0-8.59-1.2-11.29-3.59s-4.05-5.91-4.05-10.56c0-4.68,1.35-8.22,4.05-10.61
			s6.46-3.59,11.29-3.59h18.09v6.21h-18.09c-2.34,0-4.13,0.65-5.37,1.94c-1.24,1.3-1.86,3.31-1.86,6.05c0,2.7,0.62,4.7,1.86,5.99
			c1.24,1.3,3.03,1.94,5.37,1.94h18.63v6.21L209.82,109.73L209.82,109.73z"/>
		<path class="st0" d="M232.5,109.46V70.85h7.83v38.61H232.5z"/>
		<path class="st0" d="M260.53,109.73c-4.82,0-8.59-1.2-11.29-3.59s-4.05-5.91-4.05-10.56c0-4.68,1.35-8.22,4.05-10.61
			s6.46-3.59,11.29-3.59h9.99c4.82,0,8.59,1.2,11.29,3.59s4.05,5.93,4.05,10.61c0,4.64-1.35,8.16-4.05,10.56
			c-2.7,2.39-6.46,3.59-11.29,3.59H260.53z M260.53,103.52h9.99c2.34,0,4.13-0.65,5.37-1.94s1.86-3.29,1.86-5.99
			c0-2.74-0.62-4.75-1.86-6.05s-3.03-1.94-5.37-1.94h-9.99c-2.34,0-4.13,0.65-5.37,1.94c-1.24,1.3-1.86,3.31-1.86,6.05
			c0,2.7,0.62,4.7,1.86,5.99C256.4,102.88,258.19,103.52,260.53,103.52z"/>
		<path class="st0" d="M299.57,109.46c-3.17,0-5.48-0.79-6.94-2.38c-1.46-1.58-2.19-3.64-2.19-6.16V81.66h7.83v18.36
			c0,2.16,1.08,3.24,3.24,3.24h11.23c2.16,0,3.24-1.08,3.24-3.24V81.66h7.83v19.28c0,2.52-0.73,4.57-2.19,6.16
			c-1.46,1.58-3.77,2.38-6.94,2.38h-15.11V109.46z"/>
		<path class="st0" d="M343.74,109.46c-4.82,0-8.59-1.19-11.29-3.56c-2.7-2.38-4.05-5.81-4.05-10.31c0-4.54,1.35-7.99,4.05-10.37
			c2.7-2.38,6.46-3.56,11.29-3.56h18.09v6.21h-18.09c-2.34,0-4.13,0.64-5.37,1.92s-1.86,3.21-1.86,5.8c0,2.56,0.62,4.47,1.86,5.75
			s3.03,1.92,5.37,1.92h18.63v6.21h-18.63V109.46z M355.89,109.46V70.85h7.83v38.61H355.89z"/>
	</g>
	<rect x="52.14" y="70.86" class="st0" width="7.94" height="6.21"/>
</g>
</svg>
